Coordinates
version=1
nRows=12
nColumns=33
inDegrees=yes

Units are S.I. units (second, meters, Newtons, ...)
Angles are in degrees.

endheader
time	ground_thorax_rot_x	ground_thorax_rot_y	ground_thorax_rot_z	ground_thorax_tx	ground_thorax_ty	ground_thorax_tz	clav_prot_r	clav_elev_r	scapula_abduction_r	scapula_elevation_r	scapula_upward_rot_r	scapula_winging_r	shoulder_elv_r	plane_of_elev_r	axial_rot_r	elbow_flexion_r	pro_sup_r	wrist_flex_r	wrist_dev_r	clav_prot_l	clav_elev_l	scapula_abduction_l	scapula_elevation_l	scapula_upward_rot_l	scapula_winging_l	shoulder_elv_l	plane_of_elev_l	axial_rot_l	elbow_flexion_l	pro_sup_l	wrist_flex_l	wrist_dev_l
      1.21000000	      1.78978819	      0.89726101	     -0.01380670	     -0.15476387	      0.98836167	      0.00603588	     -8.56330242	      2.60519674	     -9.60584128	      6.23255902	      8.40163429	     -1.90060280	     48.08626570	    -47.81341896	     58.04917618	     76.28624517	     -9.46567730	     34.99526171	    -17.09930289	     -8.04172606	      5.92309318	      8.94689048	     -8.49132256	      7.37669142	      1.52479744	     38.23613992	    -51.53665802	    -30.34944676	     74.98032370	     15.94740130	    -10.91637437	    -24.99999983
      1.22000000	      1.82187643	      0.85179973	      0.03442031	     -0.15459121	      0.98829120	      0.00612441	     -8.63815774	      2.50945968	     -9.75733736	      6.17871867	      8.30857587	     -1.84764104	     48.01149814	    -47.80697356	     57.87347901	     76.17075868	     -9.35438119	     34.98387390	    -17.13749887	     -8.10327588	      5.74741888	      9.02302369	     -8.35521316	      7.30952007	      1.48979345	     38.15681768	    -51.64707740	    -30.39844111	     74.59533065	     15.88399887	    -10.88574339	    -24.99999983
      1.23000000	      2.00569599	      0.93630115	     -0.14220398	     -0.15431671	      0.98829022	      0.00617576	     -8.63231630	      2.57492224	    -10.16938135	      6.50511691	      7.61776466	     -1.61849917	     47.96514572	    -47.25545348	     56.43493102	     75.94116071	     -7.24218376	     35.26936376	    -17.63083688	     -8.36580919	      5.17269552	      9.08691264	     -7.70664424	      7.61162459	      1.53482388	     38.08578025	    -51.99711293	    -30.89245460	     74.36377549	     14.89757421	    -11.08579400	    -24.99999983
      1.24000000	      1.99584370	      0.90634399	     -0.07791766	     -0.15448536	      0.98798409	      0.00616989	     -8.64562565	      2.50901055	    -10.19105606	      6.45702037	      7.58852516	     -1.60386129	     47.89912960	    -47.23438438	     56.41694360	     75.97190132	     -7.22303632	     35.27330974	    -17.63518759	     -8.36432076	      5.12009440	      9.10037502	     -7.68470353	      7.54388533	      1.51664124	     38.01794335	    -51.98828857	    -30.91996664	     74.28704194	     14.89992328	    -11.08477958	    -24.99999983
      1.25000000	      1.97360532	      0.81076548	      0.03424475	     -0.15432693	      0.98809925	      0.00628631	     -8.77482656	      2.34731225	    -10.37460669	      6.31612920	      7.55949927	     -1.55084647	     47.86683756	    -47.28467163	     56.11815214	     75.92361307	     -7.13946452	     35.29442556	    -17.70276903	     -8.41855189	      4.97274874	      9.21747838	     -7.60310623	      7.40535760	      1.45235260	     37.97668602	    -51.97263418	    -30.82564349	     73.81455988	     14.89595303	    -11.13048851	    -24.99999983
      1.26000000	      2.04723108	      1.04754482	     -0.41248186	     -0.15433995	      0.98839466	      0.00620858	     -8.88042835	      1.96158143	    -10.56971861	      6.06552115	      7.28724956	     -1.42137508	     47.84533057	    -47.31195480	     55.02676330	     75.90606549	     -6.30189180	     35.55880409	    -17.96520173	     -8.48470148	      4.55339822	      9.29204100	     -7.30484567	      7.17913992	      1.35726655	     37.94863617	    -51.24104582	    -30.54387849	     73.40076418	     14.85625960	    -11.66287414	    -24.99999983
      1.27000000	      1.89203022	      1.09168273	     -0.22931567	     -0.15465042	      0.98816628	      0.00625926	     -8.53797926	      1.79109872	    -10.47316423	      6.33355411	      6.21809675	     -1.14778399	     47.72484435	    -47.35161305	     52.85882064	     75.76151324	     -2.56910603	     36.45223177	    -18.44661450	     -8.22758616	      4.60206126	      9.32637838	     -7.68934804	      6.31507107	      1.12894373	     38.36234634	    -50.69636750	    -30.37342741	     73.27274002	     14.95701998	    -14.00389461	    -24.99999983
      1.28000000	      1.86889216	      1.07663056	     -0.12348337	     -0.15490169	      0.98793769	      0.00617000	     -8.55459558	      1.76832569	    -10.48927829	      6.30958538	      6.22622232	     -1.14667255	     47.71779129	    -47.34413708	     52.82960309	     75.76281624	     -2.55754284	     36.44936847	    -18.45086081	     -8.24051508	      4.55675228	      9.34069829	     -7.65446332	      6.29765029	      1.12161909	     38.31009584	    -50.66158913	    -30.38249806	     73.28372177	     14.95794238	    -14.01641655	    -24.99999983
      1.29000000	      1.89412093	      1.06550145	      0.02502923	     -0.15468944	      0.98804264	      0.00611412	     -8.69504742	      1.70556071	    -10.71166230	      6.24120893	      6.24266799	     -1.11295353	     47.76690810	    -47.48939963	     52.51133463	     75.69663537	     -2.41656548	     36.44525579	    -18.49271109	     -8.37917214	      4.40395033	      9.57122883	     -7.53557690	      6.23441297	      1.05899884	     38.22767132	    -50.62081115	    -30.22724149	     73.06975629	     14.96466011	    -14.18814198	    -24.99999983
      1.30000000	      1.83812024	      1.04117637	      0.06229505	     -0.15474574	      0.98771936	      0.00606731	     -8.69875292	      1.70359121	    -10.71898802	      6.23945266	      6.24259735	     -1.11217602	     47.76259441	    -47.48991817	     52.50087281	     75.70930971	     -2.40766579	     36.44810272	    -18.49277467	     -8.38203432	      4.36313652	      9.56405746	     -7.50183198	      6.22612582	      1.05578705	     38.19974463	    -50.57807254	    -30.23460862	     73.07764138	     14.96611419	    -14.19597897	    -24.99999983
      1.31000000	      2.02148400	      0.95732361	     -0.14528713	     -0.15490804	      0.98798293	      0.00619807	     -8.30836395	      1.41835980	    -10.30992525	      6.28298234	      5.48774897	     -0.95179719	     48.10506369	    -47.71311141	     50.35156733	     75.96763930	      2.30668433	     36.88821451	    -18.08884843	     -8.41315947	      3.74686021	     10.09602894	     -7.45101393	      4.90661629	      0.59158117	     38.86704879	    -49.67983495	    -30.08157883	     72.79904222	     15.49565072	    -18.63651044	    -24.99999983
      1.32000000	      1.96575858	      0.93687739	     -0.11085023	     -0.15497105	      0.98771642	      0.00615536	     -8.31431082	      1.42220727	    -10.31834909	      6.28485916	      5.49230747	     -0.95628625	     48.10720502	    -47.71693682	     50.34167234	     75.97609538	      2.30705487	     36.88740015	    -18.09073100	     -8.41637659	      3.71611181	     10.09128740	     -7.42530253	      4.90264691	      0.59085133	     38.84777891	    -49.65030544	    -30.08868143	     72.80015404	     15.49540786	    -18.63878442	    -24.99999983
